<?xml version="1.0" standalone="no"?><!DOCTYPE svg PUBLIC "-//W3C//DTD SVG 1.1//EN" "http://www.w3.org/Graphics/SVG/1.1/DTD/svg11.dtd"><svg t="1753784842824" class="icon" viewBox="0 0 1024 1024" version="1.1" xmlns="http://www.w3.org/2000/svg" p-id="5476" xmlns:xlink="http://www.w3.org/1999/xlink" width="200" height="200"><path d="M512 373.7088c-12.6464 0-22.8864-10.24-22.8864-22.8864v-117.248c0-12.6464 10.24-22.8864 22.8864-22.8864 12.6464 0 22.8864 10.24 22.8864 22.8864v117.248c0 12.5952-10.24 22.8352-22.8864 22.8864z" p-id="5477" fill="#ffffff"></path><path d="M512 370.2272c-10.752 0-19.456-8.704-19.456-19.456v-117.248c0-10.752 8.704-19.456 19.456-19.456s19.456 8.704 19.456 19.456v117.248c0 5.1712-2.048 10.0864-5.6832 13.7728-3.6864 3.6352-8.6016 5.6832-13.7728 5.6832z" p-id="5478" fill="#ffffff"></path><path d="M512 928c-152.3712 0-275.8656-123.5456-275.8656-275.8656V371.8656c0-152.3712 123.5456-275.8656 275.8656-275.8656s275.8656 123.4944 275.8656 275.8656v280.2176c0 73.1648-29.0816 143.36-80.7936 195.072a275.7632 275.7632 0 0 1-195.072 80.8448z m0-786.176c-126.8736 0-230.0416 103.2192-230.0416 230.0928v280.2176c0 126.8736 103.2192 230.0928 230.0416 230.0928 126.8736 0 230.0928-103.2192 230.0928-230.0928V371.8656c0-126.8224-103.2192-230.0416-230.0928-230.0416z" p-id="5479" fill="#ffffff"></path><path d="M512 924.5184c-150.4256 0-272.4352-121.9584-272.4352-272.4352V371.8656c0-150.4256 121.9584-272.4352 272.4352-272.4352s272.4352 121.9584 272.4352 272.4352v280.2176c0 150.4768-121.9584 272.4352-272.4352 272.4352z m0-786.176c-128.768 0-233.5232 104.7552-233.5232 233.5232v280.2176c0 128.768 104.7552 233.5232 233.5232 233.5232s233.5232-104.7552 233.5232-233.5232V371.8656c0-128.768-104.7552-233.5232-233.5232-233.5232z" p-id="5480" fill="#ffffff"></path></svg>